HIERARCHY
ROOT Hips
{
  OFFSET 0 0 0
  CHANNELS 6 Xposition Yposition Zposition Zrotation Yrotation Xrotation
  JOINT LeftThigh
  {
    OFFSET 8.409438 0 -5.917753
    CHANNELS 3 Zrotation Yrotation Xrotation
    JOINT LeftLeg
    {
      OFFSET 0 0 -42.358652
      CHANNELS 3 Zrotation Yrotation Xrotation
      JOINT LeftFoot
      {
        OFFSET 0 0 -39.357303
        CHANNELS 3 Zrotation Yrotation Xrotation
      }
    }
  }
  JOINT RightThigh
  {
    OFFSET -8.409438 0 -5.917753
    CHANNELS 3 Zrotation Yrotation Xrotation
    JOINT RightLeg
    {
      OFFSET 0 0 -42.358652
      CHANNELS 3 Zrotation Yrotation Xrotation
      JOINT RightFoot
      {
        OFFSET 0 0 -39.357303
        CHANNELS 3 Zrotation Yrotation Xrotation
      }
    }
  }
  JOINT SpineLow
  {
    OFFSET 0 0 4.719101
    CHANNELS 3 Zrotation Yrotation Xrotation
    JOINT SpineMid
    {
      OFFSET 0 0 12.899191
      CHANNELS 3 Zrotation Yrotation Xrotation
      JOINT Chest
      {
        OFFSET 0 0 12.899191
        CHANNELS 3 Zrotation Yrotation Xrotation
        JOINT LeftShoulder
        {
          OFFSET 7.550562 1.41573 9.438202
          CHANNELS 3 Zrotation Yrotation Xrotation
          JOINT LeftArm
          {
            OFFSET 9.155056 0 4.247191
            CHANNELS 3 Zrotation Yrotation Xrotation
            JOINT LeftForearm
            {
              OFFSET 0 0 25.771955
              CHANNELS 3 Zrotation Yrotation Xrotation
              JOINT LeftHand
              {
                OFFSET 0 0 25.197169
                CHANNELS 3 Zrotation Yrotation Xrotation
              }
            }
          }
        }
        JOINT RightShoulder
        {
          OFFSET -7.550562 1.41573 9.438202
          CHANNELS 3 Zrotation Yrotation Xrotation
          JOINT RightArm
          {
            OFFSET -9.155056 0 4.247191
            CHANNELS 3 Zrotation Yrotation Xrotation
            JOINT RightForearm
            {
              OFFSET 0 0 -25.771955
              CHANNELS 3 Zrotation Yrotation Xrotation
              JOINT RightHand
              {
                OFFSET 0 0 -25.197169
                CHANNELS 3 Zrotation Yrotation Xrotation
              }
            }
          }
        }
        JOINT Neck
        {
          OFFSET 0 0 15.101124
          CHANNELS 3 Zrotation Yrotation Xrotation
          JOINT Head
          {
            OFFSET 0 0 11.325843
            CHANNELS 3 Zrotation Yrotation Xrotation
            End Site
            {
              OFFSET 0 0 14.157303
            }
          }
        }
      }
    }
  }
}
MOTION
Frames: 16
Frame Time: 0.0
0.0  101.685394  0.0  -3.32451  2.653016  -131.017227  9.847183  -17.313797  4.584367  -11.134397  18.39147  46.639841  4.512205  5.665113  0.976136  8.452988  -24.705399  -72.585352  17.175659  17.445961  32.861053  -21.56964  -13.857154  23.707459  -1.849904  -1.129169  4.883287  -5.263048  -2.697383  13.432389  -5.263049  -2.697382  13.432389  8.019049  28.828016  29.267939  143.014952  41.163243  -171.354733  -17.07502  2.222935  116.808372  68.904203  -8.648246  19.111079  4.654149  -3.470592  22.359755  27.710748  66.282168  -27.025067  9.958128  -30.577695  -103.009017  60.027692  5.556768  18.067956  -9.135616  4.866318  5.65  -6.893353  3.566639  4.308986  
0.0  101.685394  0.0  -3.157681  2.354895  -130.797169  12.217552  -17.342927  4.395987  -12.152719  17.794482  46.113124  4.755359  5.166126  0.929301  6.553524  -28.326753  -70.798975  21.61114  16.463052  38.063266  -19.79535  -12.930293  23.472803  -2.123276  -0.960096  4.798417  -5.969616  -2.190067  13.19321  -5.969616  -2.190066  13.19321  9.82319  29.372741  29.808574  144.073158  42.368593  -171.334963  -16.941767  4.265234  117.376244  68.222264  -8.692982  18.991875  6.058178  -3.993863  23.237655  29.872043  66.541617  -25.025446  10.52374  -30.50932  -103.815008  59.740399  5.825837  18.154886  -8.227818  4.870103  5.692507  -6.213227  3.577126  4.333439  
0.0  101.685394  0.0  -3.272621  2.300244  -130.683313  14.913819  -18.259959  4.697962  -13.623458  17.210739  44.832347  3.86421  4.570426  1.057901  5.06749  -29.411777  -69.378567  22.207748  17.280193  43.329663  -15.461477  -12.967906  22.859532  -2.312738  -0.777827  4.816033  -6.448631  -1.655112  13.227294  -6.44863  -1.655112  13.227294  10.837129  29.467893  29.688605  144.666209  43.73569  -171.383578  -16.957203  5.962859  117.505142  67.822336  -8.802148  18.601647  6.866056  -4.840554  23.244244  32.522319  66.473658  -22.370861  11.34098  -30.310399  -104.723224  59.400497  6.143751  18.233182  -7.786856  4.444142  5.703613  -5.879356  3.261438  4.333117  
0.0  101.685394  0.0  -3.606455  2.719768  -130.673947  16.868408  -19.325709  4.992787  -14.49721  16.131017  43.873065  1.631732  4.274077  1.116181  4.210819  -30.336481  -69.523692  23.183257  19.324465  50.348221  -10.774318  -13.240019  21.900006  -2.431822  -0.651194  4.915497  -6.748411  -1.276914  13.487463  -6.748411  -1.276914  13.487462  10.830748  29.370141  29.038901  144.773558  44.821277  -171.409857  -17.209412  6.871531  117.370676  68.026817  -8.91715  17.916149  6.819015  -5.402274  22.520679  35.38858  65.859626  -19.386679  12.206684  -29.804561  -105.482918  59.07888  6.443862  18.431536  -7.953509  3.903593  5.566188  -5.999004  2.856138  4.224741  
0.0  101.685394  0.0  -4.009976  3.318777  -130.725482  17.302295  -19.847815  4.966798  -13.857498  14.627098  44.198917  -1.094156  4.209317  0.746595  4.36606  -30.988966  -70.527019  24.556548  21.899024  58.044847  -7.16483  -13.067326  21.115049  -2.407955  -0.611934  5.074486  -6.677319  -1.158916  13.917067  -6.677319  -1.158917  13.917067  9.532436  29.137376  27.926719  144.686206  45.440506  -171.258351  -17.653657  6.592748  117.070229  68.487125  -9.074506  17.019093  5.581572  -5.559595  21.304145  38.404943  64.795564  -16.208629  13.177102  -29.057988  -106.201395  58.597709  6.745411  18.558859  -8.793366  3.350051  5.239971  -6.622464  2.437972  3.978083  
0.0  101.685394  0.0  -4.287615  3.744839  -130.722486  16.513831  -19.795842  4.794345  -13.093855  13.745043  44.849388  -2.242632  4.507905  0.313585  6.047147  -29.176519  -72.364515  23.821595  24.341208  65.91672  -4.426591  -12.485839  20.604895  -2.356377  -0.621587  5.054735  -6.538845  -1.197954  13.863532  -6.538845  -1.197954  13.863532  8.817421  28.868914  28.011813  144.634882  45.618892  -170.883667  -18.10631  5.37224  116.692262  69.014381  -9.260808  16.120362  4.016388  -5.266751  21.16128  41.44857  63.378591  -12.923256  14.289878  -27.927654  -107.023486  58.112158  7.113233  19.005001  -9.590818  3.189309  5.486748  -7.220593  2.306785  4.16531  
0.0  101.685394  0.0  -4.512509  3.823875  -130.626302  15.347764  -19.722986  4.831194  -12.566265  13.88829  44.851377  -1.790073  4.775985  0.252092  8.302785  -24.031928  -74.036502  19.605922  25.332041  73.044436  -2.624731  -11.227072  20.253865  -2.451873  -0.669225  4.966681  -6.807412  -1.316493  13.62943  -6.807413  -1.316493  13.62943  9.499645  28.940735  28.547376  144.822509  45.470232  -170.234984  -18.446416  3.812858  116.396907  69.522692  -9.383716  15.327306  3.548949  -4.446918  21.505533  44.346707  61.891507  -9.689632  15.483282  -26.562264  -107.820049  57.448414  7.537805  19.370352  -9.653829  3.465757  5.882817  -7.272345  2.507428  4.466892  
0.0  101.685394  0.0  -4.794988  3.673102  -130.380038  14.162252  -19.804081  4.942081  -12.257813  14.537608  44.39022  -0.536041  4.865152  0.277872  9.439018  -19.152984  -74.204413  15.014961  24.828891  78.773493  -1.395487  -9.380821  19.774054  -2.599757  -0.713002  4.853718  -7.21709  -1.417369  13.328093  -7.217089  -1.417369  13.328092  10.797477  28.916975  28.975919  145.186358  45.066968  -169.498689  -18.570252  2.57659  116.293318  69.88023  -9.31999  14.713326  3.51862  -3.523177  21.796642  47.184387  60.162939  -6.555511  16.556463  -25.078323  -108.479723  56.953066  7.900772  19.676523  -9.334951  3.770924  6.300986  -7.038486  2.733076  4.783025  
0.0  101.685394  0.0  -5.04962  3.206605  -129.735469  13.54463  -20.098781  4.637863  -12.178108  15.38575  43.725695  0.894928  4.905671  0.313576  9.766745  -15.412758  -73.401724  11.272817  23.370967  83.344213  -0.291022  -7.490974  19.32439  -2.658864  -0.790645  4.69897  -7.390916  -1.633855  12.915707  -7.390916  -1.633855  12.915708  11.343174  28.916609  28.993072  147.359691  44.255214  -168.404594  -17.555838  2.141576  117.071116  69.935448  -9.205534  14.293225  3.206127  -2.708783  21.835986  50.021701  58.281325  -3.432617  17.920483  -23.514799  -109.195511  56.60994  8.302794  20.00163  -9.110463  4.007632  6.585111  -6.874235  2.908759  4.997958  
0.0  101.685394  0.0  -5.179871  2.48012  -128.83793  13.679794  -20.543557  3.935102  -12.079293  15.942327  43.070189  1.902702  4.91016  0.399746  10.438044  -12.696315  -72.278706  8.315369  22.161681  87.397569  0.937806  -5.557013  18.833846  -2.628986  -0.870549  4.542895  -7.321978  -1.874322  12.498453  -7.321978  -1.874322  12.498453  11.96651  28.81682  28.978343  148.007162  43.915234  -167.572653  -17.335379  2.328132  117.442712  69.642961  -9.116316  14.105824  2.735125  -2.009051  21.811163  52.364201  56.437826  -0.824232  18.916854  -21.943869  -109.429984  56.234484  8.575437  20.001399  -8.988678  4.088045  6.607238  -6.783835  2.970064  5.014822  
0.0  101.685394  0.0  -5.161934  1.732319  -127.968381  14.341611  -20.951975  3.202926  -11.827629  15.96085  42.493972  2.479423  4.868377  0.632628  11.588593  -11.016153  -70.859626  6.249297  21.59314  91.237301  2.403685  -3.534205  18.27652  -2.535614  -0.914974  4.455383  -7.07413  -2.022258  12.262472  -7.074129  -2.022258  12.262471  11.75071  28.662505  28.438111  148.91182  43.71504  -166.590353  -17.219643  3.207806  118.003371  69.222458  -8.965881  14.126417  1.855485  -1.412232  21.422821  54.604446  54.472801  1.32939  19.90251  -20.428666  -109.421369  55.889042  8.851638  19.902178  -8.999834  3.922382  6.26507  -6.788335  2.850645  4.756026  
0.0  101.685394  0.0  -5.013363  1.09574  -127.113094  15.261318  -21.1589  2.463942  -11.246749  15.459753  42.164846  1.919672  4.724571  0.706563  12.247043  -10.041493  -69.10141  5.372103  20.924978  94.928586  4.131454  -1.678681  17.752585  -2.459986  -0.890848  4.430335  -6.862994  -1.973351  12.189487  -6.862994  -1.973351  12.189486  11.641045  28.420072  27.612434  149.974891  43.68238  -165.533919  -16.89285  4.482482  118.79782  68.895524  -8.824174  14.265998  1.209218  -1.05654  20.810025  56.364121  52.511075  3.032856  20.970516  -18.934572  -109.317389  55.526013  9.123488  19.843077  -8.91838  3.514327  5.638926  -6.719816  2.554381  4.280287  
0.0  101.685394  0.0  -4.685672  0.561382  -126.185808  16.13665  -21.017623  1.606444  -10.164518  14.564052  42.305147  0.816767  4.555482  0.5646  12.777824  -9.526242  -66.985002  5.281625  20.414541  98.417548  5.89942  0.114041  17.169552  -2.468057  -0.808053  4.424142  -6.869284  -1.747379  12.163591  -6.869285  -1.747379  12.163591  11.73177  28.182442  26.562719  151.071237  43.678646  -164.359425  -16.85544  5.49595  119.503457  68.637206  -8.725821  14.30443  1.269029  -0.756108  20.110313  57.650787  50.544192  4.347899  22.207111  -17.534492  -109.18064  55.144863  9.430236  19.945712  -8.418875  3.066687  4.92234  -6.337848  2.232894  3.733994  
0.0  101.685394  0.0  -4.232865  0.023128  -125.279225  16.854691  -20.698998  0.721017  -8.929091  13.596113  42.713879  -0.263915  4.50937  0.344658  13.603311  -9.788431  -64.407453  5.820809  20.452267  101.582148  7.154064  2.053486  16.549187  -2.496416  -0.700338  4.426218  -6.926408  -1.449039  12.15792  -6.926408  -1.449039  12.157919  12.013197  28.078568  25.510373  152.450653  43.712923  -163.174111  -16.650521  5.953671  120.369858  68.409288  -8.687729  14.032772  1.35873  -0.401797  19.297085  59.105552  48.539872  5.588224  23.345018  -16.282422  -108.794905  54.741451  9.801534  20.047086  -7.912346  2.606643  4.095183  -5.951025  1.902449  3.105243  
0.0  101.685394  0.0  -3.876248  -0.589306  -124.321006  17.351035  -20.393044  -0.312918  -7.813123  12.808456  43.094872  -0.996727  4.524424  0.218334  14.409778  -10.600743  -61.60862  6.460838  20.678472  104.384512  7.684897  4.337958  15.931184  -2.403571  -0.626742  4.46342  -6.660405  -1.262208  12.250142  -6.660405  -1.262208  12.250142  11.459861  27.881094  24.162785  153.583103  43.85058  -161.917728  -16.736633  5.82317  121.008439  68.303226  -8.690618  13.489432  0.715675  -0.20444  18.308783  60.70943  46.741093  6.830775  23.984188  -15.155931  -108.303776  54.228941  9.980647  19.928187  -7.826821  2.046121  3.145093  -5.880207  1.494652  2.385248  
0.0  101.685394  0.0  -3.553134  -1.174765  -123.274389  17.663877  -19.967449  -1.428415  -6.914679  12.308671  43.283985  -1.144741  4.549296  0.265545  15.14888  -11.250666  -58.39271  6.551469  21.203515  106.576133  7.947984  6.871467  15.203641  -2.407103  -0.518769  4.429812  -6.649495  -0.97134  12.14711  -6.649494  -0.97134  12.14711  11.625918  27.595499  23.215206  154.97951  44.030375  -160.541019  -16.849182  5.310659  121.577791  68.386902  -8.702004  12.697536  0.639574  -0.124678  17.603393  62.685972  45.000679  8.401784  24.506466  -14.091383  -107.63976  53.940602  10.271025  20.025868  -7.39772  1.548936  2.472593  -5.554326  1.13199  1.873411  
